<svg xmlns="http://www.w3.org/2000/svg" width="32" height="32" id="card"><path d="M16 0C7.17 0 0 7.17 0 16s7.17 16 16 16 16-7.17 16-16S24.83 0 16 0zm0 1c8.29 0 15 6.71 15 15s-6.71 15-15 15S1 24.29 1 16 7.71 1 16 1zm-5.75 5.938a.34.34 0 0 0-.219.093c-.053.053-.062.113-.062.188V24.78c0 .076.008.135.062.188a.347.347 0 0 0 .219.093h11.5a.34.34 0 0 0 .219-.093c.053-.053.062-.113.062-.188V7.22c0-.074-.01-.135-.062-.188a.333.333 0 0 0-.219-.093h-11.5zm5.719 5.937c.076 0 .163.042.219.094l1.875 1.781c.312.299.524.666.593 1.063.07.393-.022.823-.312 1.156-.436.551-1.199.572-1.875.312.038.231.074.488.125.688.084.328.23.576.312.656.182.177.035.5-.218.5h-1.375c-.254 0-.4-.323-.22-.5.085-.082.21-.332.282-.656.035-.158.066-.349.094-.532-.129.051-.29.054-.438.063a.238.238 0 0 1-.125.031h-.031c-.355 0-.687-.101-.969-.312a1.43 1.43 0 0 1-.594-1.25c.029-.456.235-.911.563-1.219l1.906-1.781c.05-.047.12-.091.188-.094z" color="#000" font-family="Sans" font-weight="400" overflow="visible" style="text-indent:0;text-align:start;line-height:normal;text-transform:none;block-progression:tb;marker:none;-inkscape-font-specification:Sans"></path></svg>